<?xml version="1.0" encoding="UTF-8"?>
<svg width="10px" height="10px" viewBox="0 0 10 10" version="1.1" xmlns="http://www.w3.org/2000/svg" xmlns:xlink="http://www.w3.org/1999/xlink">
    <!-- Generator: Sketch 59.1 (86144) - https://sketch.com -->
    <title>Path</title>
    <desc>Created with Sketch.</desc>
    <g id="Page-1" stroke="none" stroke-width="1" fill="none" fill-rule="evenodd">
        <g id="media01" transform="translate(-186.000000, -90.000000)" fill="#16FFBD" fill-rule="nonzero">
            <path d="M192.4,95 L195.2,92.2 C195.6,91.8 195.6,91.2 195.2,90.8 C194.8,90.4 194.2,90.4 193.8,90.8 L191,93.6 L188.2,90.8 C187.8,90.4 187.2,90.4 186.8,90.8 C186.4,91.2 186.4,91.8 186.8,92.2 L189.6,95 L186.8,97.8 C186.4,98.2 186.4,98.8 186.8,99.2 C187,99.4 187.3,99.5 187.5,99.5 C187.7,99.5 188,99.4 188.2,99.2 L191,96.4 L193.8,99.2 C194,99.4 194.3,99.5 194.5,99.5 C194.7,99.5 195,99.4 195.2,99.2 C195.6,98.8 195.6,98.2 195.2,97.8 L192.4,95 Z" id="Path"></path>
        </g>
    </g>
</svg>