<?xml version="1.0" encoding="UTF-8"?>
<svg width="12px" height="16px" viewBox="0 0 12 16" version="1.1" xmlns="http://www.w3.org/2000/svg" xmlns:xlink="http://www.w3.org/1999/xlink">
    <!-- Generator: Sketch 59.1 (86144) - https://sketch.com -->
    <title>Group</title>
    <desc>Created with Sketch.</desc>
    <g id="Page-1" stroke="none" stroke-width="1" fill="none" fill-rule="evenodd">
        <g id="media01" transform="translate(-211.000000, -90.000000)" fill="#16FFBD" fill-rule="nonzero">
            <g id="Group" transform="translate(211.000000, 90.000000)">
                <circle id="Oval" cx="6" cy="6.1" r="1.7"></circle>
                <path d="M6,15.5 C5.7,15.5 5.3,15.5 3.2,12.8 C2.3,11.6 1.1,10 0.7,9 C0.3,8.2 0.1,7.3 0.1,6.4 C0.1,3.1 2.7,0.5 6,0.5 C9.3,0.5 11.9,3.1 11.9,6.4 C11.9,7.3 11.7,8.2 11.3,9 C10.8,10 9.7,11.6 8.8,12.8 C6.7,15.5 6.4,15.5 6,15.5 Z M6,2 C3.6,2 1.6,4 1.6,6.4 C1.6,7.1 1.7,7.7 2,8.3 C2.7,9.7 5,12.7 5.9,13.7 C6.9,12.7 9.2,9.6 9.8,8.3 C10.1,7.7 10.2,7.1 10.2,6.4 C10.4,4 8.4,2 6,2 Z" id="Shape"></path>
            </g>
        </g>
    </g>
</svg>