<?xml version="1.0" encoding="UTF-8"?>
<svg width="52px" height="52px" viewBox="0 0 52 52" version="1.1" xmlns="http://www.w3.org/2000/svg" xmlns:xlink="http://www.w3.org/1999/xlink">
    <!-- Generator: Sketch 59.1 (86144) - https://sketch.com -->
    <title>Group</title>
    <desc>Created with Sketch.</desc>
    <g id="Page-1" stroke="none" stroke-width="1" fill="none" fill-rule="evenodd">
        <g id="media01" transform="translate(-54.000000, 0.000000)" fill="#16FFBD" fill-rule="nonzero">
            <g id="Group" transform="translate(54.000000, 0.000000)">
                <g>
                    <path d="M14.4,24.3 C14.4,26.7 16.5,28 18.8,28.4 C18.4,28.5 18.2,28.9 16.6,28.8 C17.2,30.8 19,31.5 21.2,31.5 C19.5,32.8 17.3,33.3 14.9,33.3 C14.5,33.3 14.1,33.3 13.7,33.2 C15.9,34.6 18.5,36 21.4,36 C30.6,36 35.1,29.2 35.1,22.5 C35.1,22.3 35.1,22.1 35.1,21.9 C36.1,21.2 37.6,20.2 38.2,19.2 C37.3,19.6 36.3,19.2 35.2,19.3 C36.2,18.7 37.5,17.9 37.6,16.1 C36.6,16.7 35.3,17.4 34.2,17.7 C33.3,16.7 32,15.9 30.5,15.9 C27.7,15.9 25.9,18.5 25.9,21.2 C25.9,21.6 25.9,21.8 26,22.2 C21.8,22 17.4,20.6 14.9,17.6 C14.5,18.3 14.2,19.2 14.2,20.1 C14.2,21.8 15.5,23.4 16.9,24.3 C16.3,24.3 16.4,24.9 14.4,24.3 Z" id="Path"></path>
                    <path d="M26,51.3 C12.1,51.3 0.7,40 0.7,26 C0.7,12 12.1,0.7 26,0.7 C39.9,0.7 51.3,12 51.3,26 C51.3,40 39.9,51.3 26,51.3 Z M26,3.9 C13.8,3.9 3.9,13.8 3.9,26 C3.9,38.2 13.8,48.1 26,48.1 C38.2,48.1 48.1,38.2 48.1,26 C48.1,13.8 38.2,3.9 26,3.9 Z" id="Shape"></path>
                </g>
            </g>
        </g>
    </g>
</svg>