<?xml version="1.0" encoding="UTF-8"?>
<svg width="52px" height="52px" viewBox="0 0 52 52" version="1.1" xmlns="http://www.w3.org/2000/svg" xmlns:xlink="http://www.w3.org/1999/xlink">
    <!-- Generator: Sketch 59.1 (86144) - https://sketch.com -->
    <title>Group</title>
    <desc>Created with Sketch.</desc>
    <g id="Page-1" stroke="none" stroke-width="1" fill="none" fill-rule="evenodd">
        <g id="media01" transform="translate(-108.000000, 0.000000)" fill="#16FFBD" fill-rule="nonzero">
            <g id="Group" transform="translate(108.000000, 0.000000)">
                <path d="M19.5,16.6 C19.5,16.6 21.9,15.2 22.7,16.7 C23.4,17.1 25,26.4 25.4,28.2 C25.7,30 26.6,30.7 27.1,29.9 C27.6,29.1 29.4,27.1 30.6,24.3 C31.8,21.5 30.2,21.1 29.7,21.3 C29.2,21.5 26.7,21.5 27.6,20.4 C28.5,19.3 30.8,17.4 31.4,17.1 C32.5,16.3 34,15.3 35.4,17 C36.3,17.7 38.3,20 36.3,23.6 C34.3,27.1 26.9,35.3 26.9,35.3 C26.9,35.3 24.1,37.2 23,35.3 C21.9,33.4 18.2,24.6 18,23.4 C17.9,22.2 17.6,21.9 17,22.2 C16.4,22.5 15.2,24.3 15.1,23.8 C15,23.3 13.9,22.6 14.6,21.5 C15.3,20.4 19,16.9 19.5,16.6 Z" id="Path"></path>
                <path d="M26,51.3 C12.1,51.3 0.7,40 0.7,26 C0.7,12 12.1,0.7 26,0.7 C39.9,0.7 51.3,12 51.3,26 C51.3,40 39.9,51.3 26,51.3 Z M26,3.9 C13.8,3.9 3.9,13.8 3.9,26 C3.9,38.2 13.8,48.1 26,48.1 C38.2,48.1 48.1,38.2 48.1,26 C48.1,13.8 38.2,3.9 26,3.9 Z" id="Shape"></path>
            </g>
        </g>
    </g>
</svg>