<?xml version="1.0" encoding="UTF-8" standalone="no"?>
<!-- Created with Inkscape (http://www.inkscape.org/) -->

<svg
   width="70"
   height="50"
   viewBox="0 0 18.520833 13.229167"
   version="1.1"
   id="svg1298"
   inkscape:version="1.1.2 (b8e25be833, 2022-02-05)"
   sodipodi:docname="icon-wave-black.svg"
   xmlns:inkscape="http://www.inkscape.org/namespaces/inkscape"
   xmlns:sodipodi="http://sodipodi.sourceforge.net/DTD/sodipodi-0.dtd"
   xmlns="http://www.w3.org/2000/svg"
   xmlns:svg="http://www.w3.org/2000/svg">
  <sodipodi:namedview
     id="namedview1300"
     pagecolor="#ffffff"
     bordercolor="#666666"
     borderopacity="1.0"
     inkscape:pageshadow="2"
     inkscape:pageopacity="0.0"
     inkscape:pagecheckerboard="0"
     inkscape:document-units="mm"
     showgrid="false"
     units="px"
     inkscape:zoom="5.6872054"
     inkscape:cx="59.43165"
     inkscape:cy="50.200403"
     inkscape:window-width="1920"
     inkscape:window-height="991"
     inkscape:window-x="-9"
     inkscape:window-y="-9"
     inkscape:window-maximized="1"
     inkscape:current-layer="layer1" />
  <defs
     id="defs1295" />
  <g
     inkscape:label="Capa 1"
     inkscape:groupmode="layer"
     id="layer1">
    <path
       class="st1"
       d="m 13.700502,7.9555784 c -0.740833,0 -1.349375,-0.6085417 -1.349375,-1.349375 0,-0.5291666 -0.423333,-0.9525 -0.9525,-0.9525 -0.529166,0 -0.9525,0.4233334 -0.9525,0.9525 0,0.7408333 -0.6085411,1.349375 -1.3493751,1.349375 -0.7408331,0 -1.3493747,-0.6085417 -1.3493747,-1.349375 0,-0.5291666 -0.4233334,-0.9525 -0.9525,-0.9525 -0.5291667,0 -0.9525,0.4233334 -0.9525,0.9525 0,0.7408333 -0.6085417,1.349375 -1.349375,1.349375 -0.7408333,0 -1.349375,-0.6085417 -1.349375,-1.349375 0,-0.1058333 0.079375,-0.1852083 0.1852084,-0.1852083 0.1058333,0 0.1852083,0.079375 0.1852083,0.1852083 0,0.5291667 0.4233333,0.9525 0.9525,0.9525 0.5291666,0 0.9525,-0.4233333 0.9525,-0.9525 0,-0.7408333 0.6085416,-1.349375 1.349375,-1.349375 0.7408333,0 1.3493749,0.6085417 1.3493749,1.349375 0,0.5291667 0.4233334,0.9525 0.9525001,0.9525 0.529167,0 0.9525001,-0.4233333 0.9525001,-0.9525 0,-0.7408333 0.608542,-1.349375 1.349375,-1.349375 0.740833,0 1.349375,0.6085417 1.349375,1.349375 0,0.5291667 0.423333,0.9525 0.9525,0.9525 0.529167,0 0.9525,-0.4233333 0.9525,-0.9525 0,-0.1058333 0.07938,-0.1852083 0.185208,-0.1852083 0.105834,0 0.185209,0.079375 0.185209,0.1852083 0.05292,0.7408333 -0.555625,1.349375 -1.296459,1.349375 z"
       id="path904-5"
       style="fill:#080d14;stroke-width:0.264583" />
  </g>
</svg>
