<?xml version="1.0" encoding="UTF-8"?>
<svg width="52px" height="52px" viewBox="0 0 52 52" version="1.1" xmlns="http://www.w3.org/2000/svg" xmlns:xlink="http://www.w3.org/1999/xlink">
    <!-- Generator: Sketch 59.1 (86144) - https://sketch.com -->
    <title>Group</title>
    <desc>Created with Sketch.</desc>
    <g id="Page-1" stroke="none" stroke-width="1" fill="none" fill-rule="evenodd">
        <g id="media01" fill="#16FFBD" fill-rule="nonzero">
            <g id="Group">
                <g id="Group-2" transform="translate(0.700000, 0.700000)">
                    <path d="M30.2,19.4 L30.2,15.5 C28.8,15.5 29.2,15.4 27.8,15.4 C26.4,15.4 25.6,15.6 24.6,16.1 C23.7,16.6 23.3,17.1 22.9,17.8 C22.6,18.5 22.4,19.4 22.4,20.8 L22.4,21.3 L20.4,21.3 L20.3,25.2 L22.3,25.2 L22.3,35.1 L26.3,35.1 L26.3,25.2 L29.9,25.2 L30.4,21.3 L26.4,21.3 C26.4,21.3 26.1,20.1 26.7,19.5 C27,19.3 30.2,19.4 30.2,19.4 Z" id="Path"></path>
                    <path d="M25.3,50.6 C11.3,50.6 0,39.2 0,25.3 C0,11.4 11.3,0 25.3,0 C39.2,0 50.6,11.3 50.6,25.3 C50.6,39.3 39.2,50.6 25.3,50.6 Z M25.3,3.2 C13.1,3.2 3.2,13.1 3.2,25.3 C3.2,37.5 13.1,47.4 25.3,47.4 C37.5,47.4 47.4,37.5 47.4,25.3 C47.4,13.1 37.5,3.2 25.3,3.2 Z" id="Shape"></path>
                </g>
            </g>
        </g>
    </g>
</svg>